<?xml version="1.0" encoding="UTF-8"?>
<!-- Self-generated product illustration: no screenshots or external media inputs. -->
<svg xmlns="http://www.w3.org/2000/svg" width="1440" height="900" viewBox="0 0 1440 900" role="img" aria-labelledby="title desc">
  <title id="title">SciForge Code mode illustration</title>
  <desc id="desc">A generic desktop workbench with a project tree, agent transcript, editor, and terminal.</desc>
  <defs>
    <linearGradient id="accent" x1="132" y1="98" x2="1308" y2="802" gradientUnits="userSpaceOnUse">
      <stop offset="0" stop-color="#10b981"/>
      <stop offset="0.5" stop-color="#0ea5e9"/>
      <stop offset="1" stop-color="#2563eb"/>
    </linearGradient>
    <filter id="shadow" x="-10%" y="-10%" width="120%" height="125%">
      <feDropShadow dx="0" dy="18" stdDeviation="24" flood-color="#0f172a" flood-opacity="0.12"/>
    </filter>
  </defs>
  <rect width="1440" height="900" rx="28" fill="#f6f8fb"/>
  <rect x="74" y="70" width="1292" height="760" rx="34" fill="#ffffff" filter="url(#shadow)"/>
  <rect x="74" y="70" width="1292" height="58" rx="34" fill="#f8fbff"/>
  <circle cx="113" cy="99" r="8" fill="#ef4444"/>
  <circle cx="139" cy="99" r="8" fill="#f59e0b"/>
  <circle cx="165" cy="99" r="8" fill="#22c55e"/>
  <text x="712" y="106" fill="#334155" font-family="Inter, Arial, sans-serif" font-size="18" font-weight="700" text-anchor="middle">SciForge Code</text>
  <rect x="74" y="128" width="270" height="702" fill="#f8fafc"/>
  <text x="112" y="178" fill="#0f172a" font-family="Inter, Arial, sans-serif" font-size="18" font-weight="700">Projects</text>
  <rect x="112" y="206" width="194" height="34" rx="10" fill="#eaf5ff"/>
  <rect x="112" y="258" width="156" height="16" rx="8" fill="#cbd5e1"/>
  <rect x="112" y="294" width="188" height="16" rx="8" fill="#d7dee8"/>
  <rect x="112" y="330" width="132" height="16" rx="8" fill="#d7dee8"/>
  <rect x="112" y="386" width="192" height="1" fill="#e2e8f0"/>
  <text x="112" y="431" fill="#64748b" font-family="Inter, Arial, sans-serif" font-size="15" font-weight="700">Tools</text>
  <rect x="112" y="458" width="168" height="36" rx="10" fill="#ffffff" stroke="#e2e8f0"/>
  <rect x="112" y="510" width="168" height="36" rx="10" fill="#ffffff" stroke="#e2e8f0"/>
  <rect x="112" y="562" width="168" height="36" rx="10" fill="#ffffff" stroke="#e2e8f0"/>
  <rect x="382" y="168" width="512" height="344" rx="24" fill="#ffffff" stroke="#e2e8f0"/>
  <text x="422" y="218" fill="#0f172a" font-family="Inter, Arial, sans-serif" font-size="24" font-weight="700">Agent transcript</text>
  <rect x="422" y="252" width="332" height="14" rx="7" fill="#dbeafe"/>
  <rect x="422" y="286" width="412" height="14" rx="7" fill="#e2e8f0"/>
  <rect x="422" y="320" width="286" height="14" rx="7" fill="#e2e8f0"/>
  <rect x="422" y="374" width="422" height="78" rx="18" fill="#f8fafc" stroke="#e2e8f0"/>
  <rect x="446" y="398" width="232" height="12" rx="6" fill="#94a3b8"/>
  <rect x="446" y="424" width="314" height="12" rx="6" fill="#cbd5e1"/>
  <rect x="930" y="168" width="372" height="344" rx="24" fill="#0f172a"/>
  <text x="966" y="220" fill="#f8fafc" font-family="Inter, Arial, sans-serif" font-size="22" font-weight="700">editor.ts</text>
  <rect x="966" y="256" width="82" height="12" rx="6" fill="#38bdf8"/>
  <rect x="1066" y="256" width="150" height="12" rx="6" fill="#e2e8f0" opacity="0.72"/>
  <rect x="966" y="296" width="248" height="12" rx="6" fill="#22c55e"/>
  <rect x="966" y="336" width="118" height="12" rx="6" fill="#f59e0b"/>
  <rect x="1102" y="336" width="128" height="12" rx="6" fill="#e2e8f0" opacity="0.72"/>
  <rect x="966" y="376" width="272" height="12" rx="6" fill="#a78bfa"/>
  <rect x="382" y="548" width="920" height="220" rx="24" fill="#111827"/>
  <text x="422" y="598" fill="#e5e7eb" font-family="Inter, Arial, sans-serif" font-size="22" font-weight="700">Terminal</text>
  <rect x="422" y="630" width="196" height="12" rx="6" fill="#10b981"/>
  <rect x="422" y="664" width="414" height="12" rx="6" fill="#64748b"/>
  <rect x="422" y="698" width="326" height="12" rx="6" fill="#64748b"/>
  <circle cx="1246" cy="696" r="42" fill="url(#accent)" opacity="0.98"/>
  <path d="M1246 671 L1255 695 L1280 700 L1255 707 L1246 731 L1237 707 L1212 700 L1237 695 Z" fill="#ffffff"/>
</svg>
