<?xml version="1.0" encoding="UTF-8"?>
<!-- Self-generated SciForge tray icon: geometric SVG only, no external media inputs. -->
<svg xmlns="http://www.w3.org/2000/svg" width="64" height="64" viewBox="0 0 64 64" role="img" aria-labelledby="title desc">
  <title id="title">SciForge tray icon</title>
  <desc id="desc">A compact geometric compass mark for the SciForge tray icon.</desc>
  <defs>
    <linearGradient id="tray-gradient" x1="7" y1="7" x2="57" y2="57" gradientUnits="userSpaceOnUse">
      <stop offset="0" stop-color="#10b981"/>
      <stop offset="1" stop-color="#2563eb"/>
    </linearGradient>
  </defs>
  <g fill="none" stroke="url(#tray-gradient)" stroke-linecap="round" stroke-linejoin="round">
    <path d="M32 7 L41 38 L32 56 L23 38 Z" stroke-width="4.5"/>
    <path d="M32 7 L32 56" stroke-width="3"/>
    <path d="M18 31 H46" stroke-width="3"/>
    <path d="M9 19 L21 28 M55 19 L43 28 M10 48 L22 40 M54 48 L42 40" stroke-width="3"/>
  </g>
  <g fill="#ffffff" stroke="url(#tray-gradient)" stroke-width="3">
    <circle cx="9" cy="19" r="4.4"/>
    <circle cx="55" cy="19" r="4.4"/>
    <circle cx="10" cy="48" r="4.4"/>
    <circle cx="54" cy="48" r="4.4"/>
  </g>
  <path d="M32 23 L35 31 L43 32 L35 35 L32 43 L29 35 L21 32 L29 31 Z" fill="url(#tray-gradient)"/>
</svg>
