<?xml version="1.0" encoding="UTF-8"?>
<!-- Self-generated product illustration: no screenshots or external media inputs. -->
<svg xmlns="http://www.w3.org/2000/svg" width="1440" height="900" viewBox="0 0 1440 900" role="img" aria-labelledby="title desc">
  <title id="title">SciForge Write mode illustration</title>
  <desc id="desc">A generic writing workspace with a file tree, Markdown document, and writing assistant.</desc>
  <defs>
    <linearGradient id="accent" x1="140" y1="92" x2="1296" y2="810" gradientUnits="userSpaceOnUse">
      <stop offset="0" stop-color="#14b8a6"/>
      <stop offset="0.6" stop-color="#3b82f6"/>
      <stop offset="1" stop-color="#6366f1"/>
    </linearGradient>
    <filter id="shadow" x="-10%" y="-10%" width="120%" height="125%">
      <feDropShadow dx="0" dy="18" stdDeviation="24" flood-color="#0f172a" flood-opacity="0.12"/>
    </filter>
  </defs>
  <rect width="1440" height="900" rx="28" fill="#f8fafc"/>
  <rect x="74" y="70" width="1292" height="760" rx="34" fill="#ffffff" filter="url(#shadow)"/>
  <rect x="74" y="70" width="1292" height="58" rx="34" fill="#f8fbff"/>
  <circle cx="113" cy="99" r="8" fill="#ef4444"/>
  <circle cx="139" cy="99" r="8" fill="#f59e0b"/>
  <circle cx="165" cy="99" r="8" fill="#22c55e"/>
  <text x="712" y="106" fill="#334155" font-family="Inter, Arial, sans-serif" font-size="18" font-weight="700" text-anchor="middle">SciForge Write</text>
  <rect x="74" y="128" width="260" height="702" fill="#f8fafc"/>
  <text x="112" y="178" fill="#0f172a" font-family="Inter, Arial, sans-serif" font-size="18" font-weight="700">Writing spaces</text>
  <rect x="112" y="214" width="178" height="36" rx="10" fill="#eaf5ff"/>
  <rect x="132" y="276" width="144" height="16" rx="8" fill="#cbd5e1"/>
  <rect x="132" y="312" width="118" height="16" rx="8" fill="#d7dee8"/>
  <rect x="132" y="348" width="152" height="16" rx="8" fill="#d7dee8"/>
  <rect x="376" y="162" width="628" height="604" rx="28" fill="#ffffff" stroke="#e2e8f0"/>
  <text x="690" y="232" fill="#0f172a" font-family="Georgia, Times, serif" font-size="38" font-weight="700" text-anchor="middle">Research Notes</text>
  <rect x="482" y="286" width="416" height="14" rx="7" fill="#cbd5e1"/>
  <rect x="482" y="326" width="372" height="14" rx="7" fill="#dbeafe"/>
  <rect x="482" y="366" width="442" height="14" rx="7" fill="#e2e8f0"/>
  <rect x="482" y="426" width="62" height="14" rx="7" fill="#10b981"/>
  <rect x="568" y="426" width="316" height="14" rx="7" fill="#e2e8f0"/>
  <rect x="482" y="468" width="62" height="14" rx="7" fill="#10b981"/>
  <rect x="568" y="468" width="356" height="14" rx="7" fill="#e2e8f0"/>
  <rect x="482" y="530" width="442" height="118" rx="18" fill="#f8fafc" stroke="#dbeafe"/>
  <rect x="520" y="568" width="324" height="12" rx="6" fill="#cbd5e1"/>
  <rect x="520" y="602" width="262" height="12" rx="6" fill="#cbd5e1"/>
  <rect x="1042" y="162" width="258" height="604" rx="28" fill="#ffffff" stroke="#e2e8f0"/>
  <circle cx="1094" cy="224" r="26" fill="url(#accent)" opacity="0.96"/>
  <path d="M1094 207 L1100 223 L1117 226 L1100 231 L1094 248 L1088 231 L1071 226 L1088 223 Z" fill="#ffffff"/>
  <text x="1136" y="220" fill="#0f172a" font-family="Inter, Arial, sans-serif" font-size="18" font-weight="700">Assistant</text>
  <rect x="1082" y="274" width="178" height="58" rx="16" fill="#f8fafc" stroke="#e2e8f0"/>
  <rect x="1106" y="296" width="96" height="12" rx="6" fill="#94a3b8"/>
  <rect x="1082" y="356" width="178" height="58" rx="16" fill="#f8fafc" stroke="#e2e8f0"/>
  <rect x="1106" y="378" width="122" height="12" rx="6" fill="#94a3b8"/>
  <rect x="1082" y="438" width="178" height="58" rx="16" fill="#f8fafc" stroke="#e2e8f0"/>
  <rect x="1106" y="460" width="108" height="12" rx="6" fill="#94a3b8"/>
  <rect x="1082" y="622" width="178" height="92" rx="18" fill="#f8fbff" stroke="#dbeafe"/>
  <rect x="1106" y="652" width="128" height="12" rx="6" fill="#cbd5e1"/>
  <rect x="1106" y="682" width="92" height="12" rx="6" fill="#cbd5e1"/>
</svg>
