<?xml version="1.0" encoding="UTF-8"?>
<!-- Self-generated product illustration: no screenshots or external media inputs. -->
<svg xmlns="http://www.w3.org/2000/svg" width="1440" height="900" viewBox="0 0 1440 900" role="img" aria-labelledby="title desc">
  <title id="title">SciForge Connect phone illustration</title>
  <desc id="desc">A generic automation bridge with channels, message cards, and scheduled tasks.</desc>
  <defs>
    <linearGradient id="accent" x1="118" y1="100" x2="1308" y2="790" gradientUnits="userSpaceOnUse">
      <stop offset="0" stop-color="#22c55e"/>
      <stop offset="0.52" stop-color="#06b6d4"/>
      <stop offset="1" stop-color="#2563eb"/>
    </linearGradient>
    <filter id="shadow" x="-10%" y="-10%" width="120%" height="125%">
      <feDropShadow dx="0" dy="18" stdDeviation="24" flood-color="#0f172a" flood-opacity="0.12"/>
    </filter>
  </defs>
  <rect width="1440" height="900" rx="28" fill="#f7fafc"/>
  <rect x="74" y="70" width="1292" height="760" rx="34" fill="#ffffff" filter="url(#shadow)"/>
  <rect x="74" y="70" width="1292" height="58" rx="34" fill="#f8fbff"/>
  <circle cx="113" cy="99" r="8" fill="#ef4444"/>
  <circle cx="139" cy="99" r="8" fill="#f59e0b"/>
  <circle cx="165" cy="99" r="8" fill="#22c55e"/>
  <text x="712" y="106" fill="#334155" font-family="Inter, Arial, sans-serif" font-size="18" font-weight="700" text-anchor="middle">SciForge Connect</text>
  <rect x="74" y="128" width="270" height="702" fill="#f8fafc"/>
  <text x="112" y="178" fill="#0f172a" font-family="Inter, Arial, sans-serif" font-size="18" font-weight="700">Channels</text>
  <rect x="112" y="214" width="190" height="42" rx="14" fill="#ecfeff" stroke="#bae6fd"/>
  <rect x="132" y="229" width="92" height="12" rx="6" fill="#0ea5e9"/>
  <rect x="112" y="276" width="190" height="42" rx="14" fill="#ffffff" stroke="#e2e8f0"/>
  <rect x="132" y="291" width="112" height="12" rx="6" fill="#94a3b8"/>
  <rect x="112" y="338" width="190" height="42" rx="14" fill="#ffffff" stroke="#e2e8f0"/>
  <rect x="132" y="353" width="82" height="12" rx="6" fill="#94a3b8"/>
  <rect x="112" y="430" width="190" height="150" rx="18" fill="#ffffff" stroke="#e2e8f0"/>
  <text x="138" y="472" fill="#0f172a" font-family="Inter, Arial, sans-serif" font-size="17" font-weight="700">Agent status</text>
  <circle cx="146" cy="514" r="10" fill="#22c55e"/>
  <rect x="168" y="506" width="92" height="14" rx="7" fill="#cbd5e1"/>
  <rect x="138" y="546" width="122" height="12" rx="6" fill="#e2e8f0"/>
  <rect x="408" y="176" width="540" height="584" rx="28" fill="#ffffff" stroke="#e2e8f0"/>
  <text x="450" y="232" fill="#0f172a" font-family="Inter, Arial, sans-serif" font-size="24" font-weight="700">Message bridge</text>
  <rect x="506" y="284" width="356" height="72" rx="22" fill="#f8fafc" stroke="#e2e8f0"/>
  <rect x="538" y="313" width="190" height="14" rx="7" fill="#94a3b8"/>
  <rect x="592" y="408" width="312" height="82" rx="22" fill="#ecfeff" stroke="#bae6fd"/>
  <rect x="626" y="438" width="188" height="14" rx="7" fill="#0891b2"/>
  <rect x="626" y="466" width="126" height="12" rx="6" fill="#67e8f9"/>
  <rect x="506" y="542" width="356" height="72" rx="22" fill="#f8fafc" stroke="#e2e8f0"/>
  <rect x="538" y="571" width="218" height="14" rx="7" fill="#94a3b8"/>
  <rect x="450" y="674" width="454" height="1" fill="#e2e8f0"/>
  <rect x="450" y="706" width="358" height="18" rx="9" fill="#dbeafe"/>
  <rect x="988" y="176" width="278" height="584" rx="28" fill="#ffffff" stroke="#e2e8f0"/>
  <circle cx="1128" cy="258" r="54" fill="url(#accent)"/>
  <path d="M1128 224 L1139 252 L1168 258 L1139 266 L1128 294 L1117 266 L1088 258 L1117 252 Z" fill="#ffffff"/>
  <text x="1128" y="356" fill="#0f172a" font-family="Inter, Arial, sans-serif" font-size="22" font-weight="700" text-anchor="middle">Automation</text>
  <rect x="1030" y="406" width="196" height="64" rx="18" fill="#f8fafc" stroke="#e2e8f0"/>
  <rect x="1058" y="431" width="126" height="12" rx="6" fill="#94a3b8"/>
  <rect x="1030" y="498" width="196" height="64" rx="18" fill="#f8fafc" stroke="#e2e8f0"/>
  <rect x="1058" y="523" width="106" height="12" rx="6" fill="#94a3b8"/>
  <rect x="1030" y="590" width="196" height="64" rx="18" fill="#f8fafc" stroke="#e2e8f0"/>
  <rect x="1058" y="615" width="138" height="12" rx="6" fill="#94a3b8"/>
</svg>
