<?xml version="1.0" encoding="UTF-8"?>
<!-- Self-generated SciForge icon: geometric SVG only, no external media inputs. -->
<svg xmlns="http://www.w3.org/2000/svg" width="1024" height="1024" viewBox="0 0 1024 1024" role="img" aria-labelledby="title desc">
  <title id="title">SciForge app icon</title>
  <desc id="desc">A geometric compass, spark, and connected nodes for the SciForge project.</desc>
  <defs>
    <linearGradient id="mark-gradient" x1="166" y1="166" x2="858" y2="858" gradientUnits="userSpaceOnUse">
      <stop offset="0" stop-color="#10b981"/>
      <stop offset="0.55" stop-color="#0ea5e9"/>
      <stop offset="1" stop-color="#2563eb"/>
    </linearGradient>
    <linearGradient id="soft-fill" x1="160" y1="128" x2="880" y2="900" gradientUnits="userSpaceOnUse">
      <stop offset="0" stop-color="#f8fafc"/>
      <stop offset="1" stop-color="#eef6ff"/>
    </linearGradient>
    <filter id="soft-shadow" x="-20%" y="-20%" width="140%" height="140%">
      <feDropShadow dx="0" dy="22" stdDeviation="28" flood-color="#0f172a" flood-opacity="0.16"/>
    </filter>
  </defs>
  <rect x="116" y="116" width="792" height="792" rx="196" fill="url(#soft-fill)" filter="url(#soft-shadow)"/>
  <g fill="none" stroke="url(#mark-gradient)" stroke-linecap="round" stroke-linejoin="round">
    <path d="M512 226 L626 624 L512 796 L398 624 Z" stroke-width="46"/>
    <path d="M512 226 L512 796" stroke-width="28"/>
    <path d="M332 508 H692" stroke-width="28"/>
    <path d="M408 380 C454 336 570 336 616 380" stroke-width="26"/>
    <path d="M376 650 C444 704 580 704 648 650" stroke-width="26"/>
    <path d="M254 330 L360 410" stroke-width="24"/>
    <path d="M770 330 L664 410" stroke-width="24"/>
    <path d="M268 694 L376 634" stroke-width="24"/>
    <path d="M756 694 L648 634" stroke-width="24"/>
  </g>
  <g fill="#f8fafc" stroke="url(#mark-gradient)" stroke-width="28">
    <circle cx="254" cy="330" r="42"/>
    <circle cx="770" cy="330" r="42"/>
    <circle cx="268" cy="694" r="42"/>
    <circle cx="756" cy="694" r="42"/>
  </g>
  <g fill="url(#mark-gradient)">
    <path d="M512 398 L535 489 L626 512 L535 535 L512 626 L489 535 L398 512 L489 489 Z"/>
    <circle cx="512" cy="512" r="30" fill="#f8fafc"/>
  </g>
</svg>
